<svg id="SVG" xmlns="http://www.w3.org/2000/svg" width="500" height="500" viewBox="0 0 500 500">
  <metadata><?xpacket begin="﻿" id="W5M0MpCehiHzreSzNTczkc9d"?>
<x:xmpmeta xmlns:x="adobe:ns:meta/" x:xmptk="Adobe XMP Core 5.6-c138 79.159824, 2016/09/14-01:09:01        ">
   <rdf:RDF xmlns:rdf="http://www.w3.org/1999/02/22-rdf-syntax-ns#">
      <rdf:Description rdf:about=""/>
   </rdf:RDF>
</x:xmpmeta>
                                                                                                    
                                                                                                    
                                                                                                    
                                                                                                    
                                                                                                    
                                                                                                    
                                                                                                    
                                                                                                    
                                                                                                    
                                                                                                    
                                                                                                    
                                                                                                    
                                                                                                    
                                                                                                    
                                                                                                    
                                                                                                    
                                                                                                    
                                                                                                    
                                                                                                    
                                                                                                    
                           
<?xpacket end="w"?></metadata>
<defs>
    <style>
      .cls-1 {
        fill: #c6c6c6;
        fill-rule: evenodd;
      }
    </style>
  </defs>
  <path id="contractset.svg" class="cls-1" d="M216,144.4V363.736H72.485l-30.2-26.594V144.4H216m18.286-18.278H24V344.65l41.7,37.364h168.59V126.125h0Zm-160,68.542H174.857v18.277H74.286V194.667Zm0,36.555H174.857V249.5H74.286V231.222Zm0,36.556H174.857v18.278H74.286V267.778ZM269.851,85H60.571v18.278H261.714v242.18H280V85H269.851Zm63.1,169.069H307.429V390.312L333.861,414H440V254.069H332.946ZM403.429,354.6h-64V340.889h64V354.6Zm0-22.847h-64V318.042h64V331.75Zm0-22.847h-64V295.194h64V308.9Zm59.849-86.82H330.286v13.709h128V391.153H472V222.083h-8.722Z"/>
</svg>
