<svg id="SVG" xmlns="http://www.w3.org/2000/svg" width="500" height="500" viewBox="0 0 500 500">
  <metadata><?xpacket begin="﻿" id="W5M0MpCehiHzreSzNTczkc9d"?>
<x:xmpmeta xmlns:x="adobe:ns:meta/" x:xmptk="Adobe XMP Core 5.6-c138 79.159824, 2016/09/14-01:09:01        ">
   <rdf:RDF xmlns:rdf="http://www.w3.org/1999/02/22-rdf-syntax-ns#">
      <rdf:Description rdf:about=""/>
   </rdf:RDF>
</x:xmpmeta>
                                                                                                    
                                                                                                    
                                                                                                    
                                                                                                    
                                                                                                    
                                                                                                    
                                                                                                    
                                                                                                    
                                                                                                    
                                                                                                    
                                                                                                    
                                                                                                    
                                                                                                    
                                                                                                    
                                                                                                    
                                                                                                    
                                                                                                    
                                                                                                    
                                                                                                    
                                                                                                    
                           
<?xpacket end="w"?></metadata>
<defs>
    <style>
      .cls-1 {
        fill: #c6c6c6;
        fill-rule: evenodd;
      }
    </style>
  </defs>
  <path id="customize.svg" class="cls-1" d="M321.867,267.342V228.3l-54.69-13.325c-1.58-4.644-4.079-9.136-6.278-13.458L288.116,155.7l-27.935-27.6-45.5,27.837c-4.64-2.36-9.515-3.788-14.527-5.443l-11.928-48.42h-39.3l-12.409,47.782a102.3,102.3,0,0,0-14.684,5.5L77.175,128.738l-27.788,27.53,26.441,42.547c-3,5.481-4.3,11.245-6.278,17.265L22,228.3v39.039l47.1,11.368c1.842,5.891,3.631,11.542,6.454,16.933L48.288,338.729l27.64,27.606,44.052-26.263c5.1,2.605,10.4,5.409,15.936,7.164l13.008,52.719h39.3l12.166-53.244a105.315,105.315,0,0,0,16.221-7.258l44.819,27.529L289.216,339.3l-28-46.463c2.062-4.247,5.008-8.672,6.478-13.212ZM120.356,248.059a47,47,0,1,1,47,46.694A46.848,46.848,0,0,1,120.356,248.059ZM475,330.839V311.734l-26.765-6.521a51.707,51.707,0,0,0-3.072-6.587L458.482,276.2l-13.671-13.509-22.269,13.623a49.764,49.764,0,0,0-7.109-2.663l-5.838-23.7H390.363l-6.073,23.385a50.087,50.087,0,0,0-7.185,2.694L355.25,263.008l-13.6,13.472,12.94,20.823c-1.468,2.682-2.106,5.5-3.072,8.449l-23.271,5.98v19.1L351.3,336.4a49.118,49.118,0,0,0,3.159,8.287l-13.343,21.088,13.527,13.51L376.2,366.432a52.009,52.009,0,0,0,7.8,3.506l6.366,25.8H409.6l5.953-26.058a51.413,51.413,0,0,0,7.939-3.552L445.422,379.6l13.6-13.547-13.7-22.738c1.009-2.078,2.451-4.244,3.17-6.466ZM376.383,321.4a23,23,0,1,1,23,22.852A22.926,22.926,0,0,1,376.383,321.4Zm39.4-116.732,7.191-12.411L408.04,178.081a38.593,38.593,0,0,0,.483-5.419l17.093-9.619-3.795-13.854-19.593.577a36.9,36.9,0,0,0-3.616-4.371l5.127-17.56-12.492-7.144L378.5,133.624a37.659,37.659,0,0,0-5.683-.919l-9.293-16.578-13.9,3.7,0.568,18.332a36.384,36.384,0,0,0-5.176,4.346l-17.366-4.759-7.191,12.41,12.878,12.176a36.575,36.575,0,0,0-1.067,6.555l-16.6,8.742,3.7,13.8,18.841-.341a38.649,38.649,0,0,0,3.747,5.174l-5.576,19.124,12.492,7.144,13.675-14.714a38.7,38.7,0,0,0,6.493.641l9.177,16.9,13.932-3.748-0.342-19.86a40.5,40.5,0,0,0,4.493-3.022Zm-60.506-42.763a17.3,17.3,0,0,1,23.543-6.3A17.066,17.066,0,0,1,385.157,179a17.3,17.3,0,0,1-23.542,6.3A17.066,17.066,0,0,1,355.274,161.907Z"/>
</svg>
