<svg id="SVG" xmlns="http://www.w3.org/2000/svg" width="500" height="500" viewBox="0 0 500 500">
  <metadata><?xpacket begin="﻿" id="W5M0MpCehiHzreSzNTczkc9d"?>
<x:xmpmeta xmlns:x="adobe:ns:meta/" x:xmptk="Adobe XMP Core 5.6-c138 79.159824, 2016/09/14-01:09:01        ">
   <rdf:RDF xmlns:rdf="http://www.w3.org/1999/02/22-rdf-syntax-ns#">
      <rdf:Description rdf:about=""/>
   </rdf:RDF>
</x:xmpmeta>
                                                                                                    
                                                                                                    
                                                                                                    
                                                                                                    
                                                                                                    
                                                                                                    
                                                                                                    
                                                                                                    
                                                                                                    
                                                                                                    
                                                                                                    
                                                                                                    
                                                                                                    
                                                                                                    
                                                                                                    
                                                                                                    
                                                                                                    
                                                                                                    
                                                                                                    
                                                                                                    
                           
<?xpacket end="w"?></metadata>
<defs>
    <style>
      .cls-1 {
        fill: #c6c6c6;
        fill-rule: evenodd;
      }
    </style>
  </defs>
  <path id="piggybank.svg" class="cls-1" d="M403.611,268.817h-5.024a141.243,141.243,0,0,0-41.036-56.446c-2.622-9.445-.642-19.663,6.083-30.23a18.739,18.739,0,0,0,.566-19.309,19.079,19.079,0,0,0-16.63-9.8c-0.778,0-1.625.067-2.4,0.142-25.825,3.175-41.534,14.659-50.942,25.579-11.319-3.523-25.683-4.583-28.373-4.787a191.813,191.813,0,0,0-20.166-1.129C202.73,172.84,162.33,187.5,131.833,214,100.983,240.845,84,276.711,84,314.908a124.97,124.97,0,0,0,3.468,29.386c0.068,0.211.068,0.422,0.137,0.565l0.075,0.353A134.187,134.187,0,0,0,98.3,373.538c7.714,16.487,16.91,30.3,27.239,40.944,14.3,14.659,16.767,33.261,17.122,40.727v4.161a10.75,10.75,0,0,0,.212,2.183,18.237,18.237,0,0,0,17.969,15.433h52.717a18.143,18.143,0,0,0,18.187-18.112V456.48a187.635,187.635,0,0,0,22.644.286v2.114a18.142,18.142,0,0,0,18.18,18.113h52.717a18.139,18.139,0,0,0,18.181-18.113V446.057c0.074-2.958,1.2-16.985,14.575-29.1,0.636-.564,1.345-1.128,1.98-1.693l0.143-.142a1.788,1.788,0,0,0,.5-0.49c17.613-15.713,30.919-34.886,38.633-55.808h4.172a25.521,25.521,0,0,0,25.539-25.442V294.129a25.232,25.232,0,0,0-25.4-25.312h0ZM235.673,106.825c0,21.344-7.293,39.681-17.762,47.967h12.458c15.946-1.269,22.916-28.865,22.916-47.967,0-19.192-7.033-46.963-23.139-47.988H217.885C228.368,67.113,235.673,85.464,235.673,106.825Zm-59.318-.01c0,26.268,11.776,47.64,26.252,47.64s26.251-21.372,26.251-47.64-11.776-47.641-26.251-47.641S176.355,80.546,176.355,106.815ZM300.764,69.992c0,21.344-7.3,39.682-17.763,47.968H295.46c15.945-1.27,22.915-28.866,22.915-47.968,0-19.192-7.033-46.963-23.139-47.988H282.975C293.458,30.28,300.764,48.631,300.764,69.992ZM267.7,22.342c-11.582,0-21.417,13.7-24.894,32.621,13.064,5.2,18.865,29.563,18.865,46.952a92.6,92.6,0,0,1-1.114,13.869,15.538,15.538,0,0,0,7.143,1.839c14.474,0,26.251-21.371,26.251-47.64S282.171,22.342,267.7,22.342Z"/>
</svg>
